<?xml version="1.0" standalone="no"?>
<!DOCTYPE svg PUBLIC "-//W3C//DTD SVG 20010904//EN"
 "http://www.w3.org/TR/2001/REC-SVG-20010904/DTD/svg10.dtd">
<svg version="1.0" xmlns="http://www.w3.org/2000/svg"
 width="512.000000pt" height="512.000000pt" viewBox="0 0 512.000000 512.000000"
 preserveAspectRatio="xMidYMid meet">
<metadata>
Created by potrace 1.14, written by Peter Selinger 2001-2017
</metadata>
<g transform="translate(0.000000,512.000000) scale(0.100000,-0.100000)"
fill="#000000" stroke="none">
<path d="M2405 5104 c-175 -36 -337 -130 -495 -285 -114 -113 -256 -312 -338
-474 l-20 -40 -153 -1 c-368 -3 -639 -77 -846 -233 -71 -53 -83 -59 -138 -63
-72 -5 -121 -27 -168 -75 -47 -46 -68 -93 -74 -164 -5 -52 -2 -67 26 -124 18
-36 37 -65 42 -65 5 0 7 -12 4 -27 -6 -32 -6 -205 -1 -243 14 -94 18 -115 21
-121 2 -3 7 -20 10 -38 18 -105 129 -358 223 -508 l51 -83 -48 -78 c-137 -222
-231 -463 -256 -657 -7 -53 -7 -212 -1 -257 3 -17 -1 -31 -9 -36 -8 -4 -25
-31 -39 -61 -28 -62 -30 -150 -3 -211 37 -84 140 -150 234 -150 44 0 57 -5 85
-30 124 -114 370 -218 584 -245 27 -4 74 -10 104 -14 30 -4 121 -6 203 -6
l147 2 47 -86 c207 -380 465 -619 758 -702 114 -33 296 -33 410 0 291 82 543
314 752 691 l52 94 168 2 c92 1 187 4 211 8 23 3 61 9 85 12 225 30 465 136
595 261 7 7 33 13 57 13 135 0 243 94 260 226 8 61 -5 115 -44 176 -19 29 -28
56 -26 70 3 13 5 55 6 93 3 245 -89 528 -260 804 l-50 81 51 83 c71 113 160
303 196 418 44 138 61 246 60 390 -1 113 1 128 20 155 37 50 51 96 48 160 -7
136 -104 233 -243 242 -41 3 -68 10 -81 22 -37 35 -157 113 -222 144 -85 41
-230 88 -320 102 -141 22 -198 27 -358 28 l-153 1 -41 75 c-225 415 -507 664
-822 725 -84 16 -220 16 -301 -1z m352 -189 c150 -51 297 -160 418 -311 22
-27 43 -51 46 -54 10 -8 97 -145 134 -211 33 -57 33 -59 12 -59 -17 0 -257
-47 -382 -75 -42 -10 -166 -48 -293 -91 l-133 -45 -112 40 c-104 36 -339 105
-397 116 -14 3 -70 14 -125 24 -55 11 -119 23 -142 26 -24 4 -43 9 -43 13 0 3
14 30 31 61 188 335 433 546 681 590 87 16 217 5 305 -24z m-1287 -792 c0 -6
-9 -33 -21 -59 -17 -42 -104 -310 -114 -354 -2 -8 -13 -54 -25 -102 -11 -48
-29 -135 -40 -194 -17 -92 -23 -109 -47 -127 -101 -78 -301 -272 -417 -401
-33 -38 -66 -74 -71 -80 -6 -6 -26 -31 -44 -55 l-34 -43 -24 38 c-98 162 -167
329 -210 509 -2 11 -7 70 -10 131 l-6 111 53 6 c91 11 168 72 207 164 21 52
13 159 -16 208 -11 20 -21 38 -21 40 0 6 79 59 130 87 84 46 207 86 346 113
16 3 65 8 109 11 44 4 81 7 82 8 1 1 40 1 87 1 59 0 86 -4 86 -12z m2510 -3
c181 -26 393 -105 478 -177 l32 -28 -25 -49 c-77 -152 25 -343 195 -363 l51
-6 -2 -87 c-4 -189 -85 -436 -211 -643 l-35 -57 -64 77 c-122 148 -253 282
-427 436 -56 50 -105 100 -107 112 -2 11 -16 81 -30 155 -39 195 -155 586
-187 627 -6 7 -3 13 9 15 32 7 245 -1 323 -12z m-2215 -15 c83 -10 273 -51
390 -85 61 -18 120 -34 133 -37 12 -3 22 -8 22 -12 0 -4 -42 -27 -92 -51 -127
-60 -313 -160 -433 -233 -106 -64 -278 -179 -307 -205 -15 -12 -18 -13 -18 -1
2 49 70 298 118 434 77 215 72 205 107 200 16 -2 53 -7 80 -10z m1719 -32 c76
-196 176 -531 176 -588 0 -10 -23 2 -67 34 -165 120 -452 288 -670 392 -62 29
-113 56 -113 60 0 5 228 72 287 84 10 2 50 10 88 19 64 15 229 43 265 45 10 1
23 -17 34 -46z m-2269 -1060 c-24 -185 -24 -620 0 -900 2 -24 0 -43 -4 -43 -8
0 -252 245 -303 305 -19 22 -60 73 -92 112 l-58 73 33 42 c103 133 399 448
421 448 5 0 6 -17 3 -37z m2757 -20 c134 -128 240 -244 337 -366 l53 -67 -75
-93 c-109 -135 -347 -385 -377 -395 -4 -2 -7 16 -4 40 23 251 22 723 -2 896
-3 23 -3 42 1 42 4 0 34 -26 67 -57z m-3222 -694 c118 -140 301 -323 443 -442
38 -31 66 -57 64 -57 -2 0 0 -21 5 -47 4 -27 11 -61 14 -78 27 -152 79 -346
145 -539 27 -77 46 -142 44 -146 -6 -10 -278 1 -341 14 -12 2 -39 7 -60 10
-131 21 -326 100 -402 164 l-32 27 25 49 c77 152 -25 343 -195 363 l-51 6 2
85 c1 47 5 102 10 121 4 20 10 50 12 66 15 98 111 326 203 482 l19 33 25 -29
c14 -16 45 -53 70 -82z m3820 -84 c94 -194 136 -342 139 -502 l2 -90 -51 -6
c-58 -7 -128 -43 -159 -83 -11 -14 -30 -45 -42 -70 -28 -59 -23 -163 10 -219
27 -46 23 -51 -70 -106 -104 -62 -237 -107 -394 -134 -85 -14 -355 -26 -355
-15 0 3 21 64 46 135 25 72 52 155 61 185 45 165 55 206 78 325 14 72 28 140
31 153 2 12 17 33 31 45 184 153 361 330 502 500 l65 78 23 -38 c13 -21 50
-92 83 -158z m-2920 -697 c63 -41 164 -103 224 -138 136 -78 416 -220 436
-220 52 -2 -154 -67 -335 -106 -117 -25 -305 -55 -314 -49 -21 13 -121 298
-166 475 -17 65 -19 76 -31 140 l-7 34 39 -30 c21 -17 91 -65 154 -106z m1994
45 c-9 -43 -19 -83 -20 -90 -12 -61 -144 -455 -159 -471 -4 -4 -202 27 -303
49 -95 20 -243 59 -312 82 -39 13 -61 27 -41 27 18 0 323 154 446 225 115 66
381 241 391 256 15 25 15 -6 -2 -78z m-936 -562 c222 -75 541 -152 660 -160
20 -1 15 -16 -33 -97 -158 -266 -332 -435 -540 -524 -59 -26 -68 -28 -163 -43
-251 -39 -536 121 -752 423 -67 94 -146 227 -138 235 2 2 44 11 93 19 50 8 99
17 110 20 11 2 55 12 97 20 100 21 321 86 423 124 44 17 84 31 88 31 4 1 74
-21 155 -48z"/>
</g>
</svg>
